<svg width="77" height="77" viewBox="0 0 77 77" fill="none" xmlns="http://www.w3.org/2000/svg">
<path d="M28.875 26.4688H33.6875V40.9062H28.875V26.4688ZM16.8438 31.2812H21.6562V40.9062H16.8438V31.2812ZM4.8125 16.8438H9.625V40.9062H4.8125V16.8438Z" fill="#C68313"/>
<path d="M72.1877 68.7851L54.0157 50.6131C57.9866 45.8673 60.1605 39.8754 60.1564 33.6875C60.1564 19.0936 48.2816 7.21875 33.6877 7.21875C27.9055 7.21875 22.4144 9.0475 17.804 12.5125L20.6915 16.3625C24.4342 13.538 28.9988 12.0167 33.6877 12.0312C45.6299 12.0312 55.3439 21.7453 55.3439 33.6875C55.3439 45.6297 45.6299 55.3438 33.6877 55.3438C30.3234 55.3569 27.0029 54.58 23.9938 53.0754C20.9846 51.5708 18.3707 49.3806 16.3627 46.6812L12.5127 49.5736C14.9682 52.8711 18.1633 55.5465 21.841 57.3845C25.5186 59.2225 29.5763 60.1719 33.6877 60.1562C40.1196 60.1562 46.0221 57.8462 50.6133 54.0155L68.7853 72.1875L72.1877 68.7851Z" fill="#C68313"/>
</svg>
