<svg width="40" height="33" viewBox="0 0 40 33" fill="none" xmlns="http://www.w3.org/2000/svg">
<path d="M16.0001 2.87992L7.68012 19.3599L4.64012 19.9999C4.96012 19.1466 5.44012 18.4533 6.08012 17.9199C6.82678 17.2799 7.73345 16.9599 8.80012 16.9599C10.6135 16.9599 12.2135 17.6533 13.6001 19.0399C15.0935 20.4266 15.8401 22.1866 15.8401 24.3199C15.8401 26.4533 15.0401 28.3199 13.4401 29.9199C11.8401 31.5199 9.97345 32.3199 7.84012 32.3199C5.70678 32.3199 3.84012 31.5732 2.24012 30.0799C0.746784 28.4799 0.000117779 26.5599 0.000117779 24.3199C0.000117779 23.3599 0.160118 22.2933 0.480118 21.1199C0.800117 19.8399 1.38678 18.2399 2.24012 16.3199L10.7201 -8.01086e-05L16.0001 2.87992ZM39.0401 2.87992L30.7201 19.3599L27.6801 19.9999C28.0001 19.1466 28.4801 18.4533 29.1201 17.9199C29.8668 17.2799 30.7735 16.9599 31.8401 16.9599C33.6535 16.9599 35.2535 17.6533 36.6401 19.0399C38.1335 20.4266 38.8801 22.1866 38.8801 24.3199C38.8801 26.4533 38.0801 28.3199 36.4801 29.9199C34.8801 31.5199 33.0135 32.3199 30.8801 32.3199C28.7468 32.3199 26.8801 31.5732 25.2801 30.0799C23.7868 28.4799 23.0401 26.5599 23.0401 24.3199C23.0401 23.3599 23.2001 22.2933 23.5201 21.1199C23.8401 19.8399 24.4268 18.2399 25.2801 16.3199L33.7601 -8.01086e-05L39.0401 2.87992Z" fill="#C68313"/>
</svg>
