<svg width="84" height="84" viewBox="0 0 84 84" fill="none" xmlns="http://www.w3.org/2000/svg">
<path d="M41.9453 12.5579C44.426 12.5579 46.805 13.5434 48.5592 15.2975C50.3133 17.0516 51.2987 19.4306 51.2987 21.9113C51.2987 24.392 50.3133 26.7711 48.5592 28.5252C46.805 30.2793 44.426 31.2647 41.9453 31.2647C39.4641 31.2647 37.0845 30.279 35.33 28.5245C33.5755 26.7701 32.5898 24.3904 32.5898 21.9092C32.5898 19.428 33.5755 17.0484 35.33 15.2939C37.0845 13.5394 39.4641 12.5579 41.9453 12.5579ZM41.9453 16.7537C41.2685 16.7537 40.5984 16.887 39.9732 17.146C39.3479 17.405 38.7798 17.7846 38.3013 18.2631C37.8228 18.7416 37.4432 19.3098 37.1842 19.935C36.9252 20.5602 36.7919 21.2304 36.7919 21.9071C36.7919 22.5839 36.9252 23.254 37.1842 23.8792C37.4432 24.5045 37.8228 25.0726 38.3013 25.5511C38.7798 26.0297 39.3479 26.4092 39.9732 26.6682C40.5984 26.9272 41.2685 27.0605 41.9453 27.0605C43.3126 27.0605 44.6239 26.5173 45.5908 25.5505C46.5576 24.5837 47.1008 23.2723 47.1008 21.905C47.1008 20.5377 46.5576 19.2264 45.5908 18.2595C44.6239 17.2927 43.3126 16.7495 41.9453 16.7495M12.6671 48.2999C12.6671 48.8569 12.4459 49.391 12.052 49.7848C11.6582 50.1787 11.1241 50.3999 10.5671 50.3999C10.0101 50.3999 9.476 50.1787 9.08218 49.7848C8.68835 49.391 8.4671 48.8569 8.4671 48.2999V37.8587C8.46724 36.83 8.84492 35.8371 9.52851 35.0683C10.2121 34.2996 11.154 33.8085 12.1757 33.6881L12.6671 33.6587H24.2465C23.637 34.7139 23.2644 35.8891 23.1545 37.1027L23.1209 37.8587H12.6629L12.6671 48.2999ZM73.4579 50.3999C74.0149 50.3999 74.549 50.1787 74.9428 49.7848C75.3366 49.391 75.5579 48.8569 75.5579 48.2999V37.8587L75.5285 37.3715C75.4091 36.3491 74.9184 35.4061 74.1495 34.7217C73.3807 34.0372 72.3873 33.659 71.3579 33.6587H59.6651C60.2783 34.7213 60.6731 35.9393 60.7655 37.2329L60.7865 37.8629H71.3579V48.2999C71.3579 48.8569 71.5791 49.391 71.973 49.7848C72.3668 50.1787 72.9009 50.3999 73.4579 50.3999ZM52.3907 33.6587C53.4201 33.659 54.4135 34.0372 55.1823 34.7217C55.9512 35.4061 56.4419 36.3491 56.5613 37.3715L56.5865 37.8587V48.2999C56.5865 48.8569 56.3652 49.391 55.9714 49.7848C55.5776 50.1787 55.0435 50.3999 54.4865 50.3999C53.9295 50.3999 53.3954 50.1787 53.0016 49.7848C52.6077 49.391 52.3865 48.8569 52.3865 48.2999V37.8587H31.5251V48.2999C31.5251 48.8569 31.3039 49.391 30.91 49.7848C30.5162 50.1787 29.9821 50.3999 29.4251 50.3999C28.8681 50.3999 28.334 50.1787 27.9402 49.7848C27.5464 49.391 27.3251 48.8569 27.3251 48.2999V37.8587C27.3252 36.83 27.7029 35.8371 28.3865 35.0683C29.0701 34.2996 30.012 33.8085 31.0337 33.6881L31.5251 33.6587H52.3907ZM70.9295 23.2301C70.9295 21.0986 70.0828 19.0545 68.5756 17.5473C67.0684 16.0401 65.0243 15.1934 62.8928 15.1934C60.7613 15.1934 58.7172 16.0401 57.21 17.5473C55.7028 19.0545 54.8561 21.0986 54.8561 23.2301C54.8561 25.3616 55.7028 27.4057 57.21 28.9129C58.7172 30.4201 60.7613 31.2668 62.8928 31.2668C65.0243 31.2668 67.0684 30.4201 68.5756 28.9129C70.0828 27.4057 70.9295 25.3616 70.9295 23.2301ZM59.0561 23.2301C59.0561 22.2126 59.4603 21.2367 60.1798 20.5172C60.8994 19.7976 61.8752 19.3934 62.8928 19.3934C63.9104 19.3934 64.8862 19.7976 65.6058 20.5172C66.3253 21.2367 66.7295 22.2126 66.7295 23.2301C66.7295 24.2477 66.3253 25.2235 65.6058 25.9431C64.8862 26.6626 63.9104 27.0668 62.8928 27.0668C61.8752 27.0668 60.8994 26.6626 60.1798 25.9431C59.4603 25.2235 59.0561 24.2477 59.0561 23.2301ZM21.0671 15.1913C23.1986 15.1913 25.2427 16.038 26.7499 17.5452C28.2571 19.0524 29.1038 21.0965 29.1038 23.228C29.1038 25.3595 28.2571 27.4036 26.7499 28.9108C25.2427 30.418 23.1986 31.2647 21.0671 31.2647C18.9356 31.2647 16.8915 30.418 15.3843 28.9108C13.8771 27.4036 13.0304 25.3595 13.0304 23.228C13.0304 21.0965 13.8771 19.0524 15.3843 17.5452C16.8915 16.038 18.9356 15.1913 21.0671 15.1913ZM21.0671 19.3913C20.0495 19.3913 19.0737 19.7955 18.3541 20.5151C17.6346 21.2346 17.2304 22.2105 17.2304 23.228C17.2304 24.2456 17.6346 25.2214 18.3541 25.941C19.0737 26.6605 20.0495 27.0647 21.0671 27.0647C22.0847 27.0647 23.0605 26.6605 23.7801 25.941C24.4996 25.2214 24.9038 24.2456 24.9038 23.228C24.9038 22.2105 24.4996 21.2346 23.7801 20.5151C23.0605 19.7955 22.0847 19.3913 21.0671 19.3913ZM10.4999 54.5999C9.94295 54.5999 9.4088 54.8212 9.01498 55.215C8.62115 55.6088 8.3999 56.143 8.3999 56.6999V60.8999C8.3999 63.6847 9.50615 66.3554 11.4753 68.3245C13.4444 70.2937 16.1151 71.3999 18.8999 71.3999H65.0999C67.8847 71.3999 70.5554 70.2937 72.5245 68.3245C74.4937 66.3554 75.5999 63.6847 75.5999 60.8999V56.6999C75.5999 56.143 75.3787 55.6088 74.9848 55.215C74.591 54.8212 74.0569 54.5999 73.4999 54.5999H10.4999ZM12.5999 60.8999V58.7999H71.3999V60.8999C71.3999 62.5708 70.7361 64.1732 69.5547 65.3547C68.3732 66.5362 66.7708 67.1999 65.0999 67.1999H18.8999C17.229 67.1999 15.6266 66.5362 14.4451 65.3547C13.2637 64.1732 12.5999 62.5708 12.5999 60.8999Z" fill="#C68313"/>
</svg>
