<svg width="18" height="18" viewBox="0 0 18 18" fill="none" xmlns="http://www.w3.org/2000/svg">
<g clip-path="url(#clip0_3341_69)">
<path d="M17.1372 8.62695C17.1372 3.86338 13.2993 0.00195312 8.56576 0.00195312C3.83004 0.00302455 -0.0078125 3.86338 -0.0078125 8.62803C-0.0078125 12.932 3.12719 16.4998 7.22433 17.147V11.1202H5.04933V8.62803H7.22647V6.72624C7.22647 4.56517 8.50683 3.3716 10.4643 3.3716C11.4029 3.3716 12.3833 3.53981 12.3833 3.53981V5.66124H11.3022C10.2383 5.66124 9.90612 6.3266 9.90612 7.0091V8.62695H12.2825L11.9033 11.1191H9.90505V17.1459C14.0022 16.4987 17.1372 12.9309 17.1372 8.62695Z" fill="white"/>
</g>
<defs>
<clipPath id="clip0_3341_69">
<rect width="17.1429" height="17.1429" fill="white"/>
</clipPath>
</defs>
</svg>
