<svg width="39" height="39" viewBox="0 0 39 39" fill="none" xmlns="http://www.w3.org/2000/svg">
<rect width="39" height="39" rx="19.5" fill="#C68313"/>
<path d="M24.6676 11.4053C24.6676 11.1708 24.7608 10.9458 24.9266 10.78C25.0925 10.6142 25.3174 10.521 25.5519 10.521H28.4996C28.7341 10.521 28.959 10.6142 29.1249 10.78C29.2907 10.9458 29.3839 11.1708 29.3839 11.4053V14.353C29.3839 14.5875 29.2907 14.8124 29.1249 14.9783C28.959 15.1441 28.7341 15.2373 28.4996 15.2373C28.2651 15.2373 28.0401 15.1441 27.8743 14.9783C27.7084 14.8124 27.6153 14.5875 27.6153 14.353V13.5394L22.3448 18.8099C22.179 18.9755 21.9543 19.0685 21.7199 19.0685C21.4856 19.0685 21.2608 18.9755 21.095 18.8099L18.1827 15.8976L13.207 20.8732C13.1261 20.9601 13.0285 21.0298 12.92 21.0781C12.8115 21.1265 12.6944 21.1524 12.5757 21.1545C12.4569 21.1566 12.339 21.1348 12.2289 21.0903C12.1188 21.0458 12.0188 20.9796 11.9348 20.8957C11.8508 20.8117 11.7846 20.7117 11.7401 20.6016C11.6957 20.4915 11.6738 20.3735 11.6759 20.2548C11.678 20.136 11.704 20.0189 11.7523 19.9105C11.8007 19.802 11.8704 19.7044 11.9572 19.6234L17.5578 14.0228C17.7236 13.8572 17.9484 13.7642 18.1827 13.7642C18.4171 13.7642 18.6418 13.8572 18.8076 14.0228L21.7199 16.9351L26.3655 12.2896H25.5519C25.3174 12.2896 25.0925 12.1964 24.9266 12.0306C24.7608 11.8648 24.6676 11.6398 24.6676 11.4053ZM12.5821 24.6698C12.8167 24.6698 13.0416 24.763 13.2074 24.9288C13.3733 25.0947 13.4664 25.3196 13.4664 25.5541V28.5018C13.4664 28.7363 13.3733 28.9613 13.2074 29.1271C13.0416 29.2929 12.8167 29.3861 12.5821 29.3861C12.3476 29.3861 12.1227 29.2929 11.9568 29.1271C11.791 28.9613 11.6978 28.7363 11.6978 28.5018V25.5541C11.6978 25.3196 11.791 25.0947 11.9568 24.9288C12.1227 24.763 12.3476 24.6698 12.5821 24.6698ZM18.1827 22.0169C18.1827 21.7824 18.0896 21.5575 17.9237 21.3916C17.7579 21.2258 17.533 21.1326 17.2984 21.1326C17.0639 21.1326 16.839 21.2258 16.6731 21.3916C16.5073 21.5575 16.4141 21.7824 16.4141 22.0169V28.5018C16.4141 28.7363 16.5073 28.9613 16.6731 29.1271C16.839 29.2929 17.0639 29.3861 17.2984 29.3861C17.533 29.3861 17.7579 29.2929 17.9237 29.1271C18.0896 28.9613 18.1827 28.7363 18.1827 28.5018V22.0169ZM22.0147 23.4908C22.2492 23.4908 22.4742 23.5839 22.64 23.7498C22.8058 23.9156 22.899 24.1405 22.899 24.3751V28.5018C22.899 28.7363 22.8058 28.9613 22.64 29.1271C22.4742 29.2929 22.2492 29.3861 22.0147 29.3861C21.7802 29.3861 21.5552 29.2929 21.3894 29.1271C21.2236 28.9613 21.1304 28.7363 21.1304 28.5018V24.3751C21.1304 24.1405 21.2236 23.9156 21.3894 23.7498C21.5552 23.5839 21.7802 23.4908 22.0147 23.4908ZM27.6153 19.6588C27.6153 19.4243 27.5221 19.1993 27.3563 19.0335C27.1904 18.8677 26.9655 18.7745 26.731 18.7745C26.4964 18.7745 26.2715 18.8677 26.1057 19.0335C25.9398 19.1993 25.8467 19.4243 25.8467 19.6588V28.5018C25.8467 28.7363 25.9398 28.9613 26.1057 29.1271C26.2715 29.2929 26.4964 29.3861 26.731 29.3861C26.9655 29.3861 27.1904 29.2929 27.3563 29.1271C27.5221 28.9613 27.6153 28.7363 27.6153 28.5018V19.6588Z" fill="white"/>
</svg>
