<svg width="24" height="24" viewBox="0 0 24 24" fill="none" xmlns="http://www.w3.org/2000/svg">
<path d="M16.505 3.2427C16.505 3.00817 16.5982 2.78324 16.764 2.6174C16.9299 2.45157 17.1548 2.3584 17.3893 2.3584H20.337C20.5715 2.3584 20.7964 2.45157 20.9623 2.6174C21.1281 2.78324 21.2213 3.00817 21.2213 3.2427V6.19038C21.2213 6.42491 21.1281 6.64983 20.9623 6.81567C20.7964 6.98151 20.5715 7.07468 20.337 7.07468C20.1025 7.07468 19.8775 6.98151 19.7117 6.81567C19.5459 6.64983 19.4527 6.42491 19.4527 6.19038V5.37682L14.1822 10.6473C14.0164 10.8129 13.7917 10.9059 13.5573 10.9059C13.323 10.9059 13.0982 10.8129 12.9324 10.6473L10.0201 7.73496L5.04445 12.7106C4.96349 12.7975 4.86587 12.8672 4.75739 12.9155C4.64892 12.9639 4.53182 12.9899 4.41309 12.9919C4.29435 12.994 4.17641 12.9722 4.0663 12.9277C3.95619 12.8832 3.85616 12.817 3.77219 12.7331C3.68822 12.6491 3.62202 12.5491 3.57754 12.439C3.53307 12.3289 3.51123 12.2109 3.51332 12.0922C3.51542 11.9734 3.54141 11.8563 3.58974 11.7479C3.63807 11.6394 3.70776 11.5418 3.79464 11.4608L9.39522 5.86024C9.56103 5.69463 9.78578 5.60162 10.0201 5.60162C10.2545 5.60162 10.4792 5.69463 10.645 5.86024L13.5573 8.77254L18.2029 4.127H17.3893C17.1548 4.127 16.9299 4.03384 16.764 3.868C16.5982 3.70216 16.505 3.47723 16.505 3.2427ZM4.41954 16.5072C4.65408 16.5072 4.879 16.6004 5.04484 16.7662C5.21068 16.9321 5.30385 17.157 5.30385 17.3915V20.3392C5.30385 20.5737 5.21068 20.7987 5.04484 20.9645C4.879 21.1303 4.65408 21.2235 4.41954 21.2235C4.18501 21.2235 3.96009 21.1303 3.79425 20.9645C3.62841 20.7987 3.53524 20.5737 3.53524 20.3392V17.3915C3.53524 17.157 3.62841 16.9321 3.79425 16.7662C3.96009 16.6004 4.18501 16.5072 4.41954 16.5072ZM10.0201 13.8543C10.0201 13.6198 9.92696 13.3949 9.76112 13.229C9.59528 13.0632 9.37035 12.97 9.13582 12.97C8.90129 12.97 8.67637 13.0632 8.51053 13.229C8.34469 13.3949 8.25152 13.6198 8.25152 13.8543V20.3392C8.25152 20.5737 8.34469 20.7987 8.51053 20.9645C8.67637 21.1303 8.90129 21.2235 9.13582 21.2235C9.37035 21.2235 9.59528 21.1303 9.76112 20.9645C9.92696 20.7987 10.0201 20.5737 10.0201 20.3392V13.8543ZM13.8521 15.3282C14.0866 15.3282 14.3116 15.4213 14.4774 15.5872C14.6432 15.753 14.7364 15.9779 14.7364 16.2125V20.3392C14.7364 20.5737 14.6432 20.7987 14.4774 20.9645C14.3116 21.1303 14.0866 21.2235 13.8521 21.2235C13.6176 21.2235 13.3926 21.1303 13.2268 20.9645C13.061 20.7987 12.9678 20.5737 12.9678 20.3392V16.2125C12.9678 15.9779 13.061 15.753 13.2268 15.5872C13.3926 15.4213 13.6176 15.3282 13.8521 15.3282ZM19.4527 11.4962C19.4527 11.2617 19.3595 11.0367 19.1937 10.8709C19.0278 10.7051 18.8029 10.6119 18.5684 10.6119C18.3338 10.6119 18.1089 10.7051 17.9431 10.8709C17.7772 11.0367 17.6841 11.2617 17.6841 11.4962V20.3392C17.6841 20.5737 17.7772 20.7987 17.9431 20.9645C18.1089 21.1303 18.3338 21.2235 18.5684 21.2235C18.8029 21.2235 19.0278 21.1303 19.1937 20.9645C19.3595 20.7987 19.4527 20.5737 19.4527 20.3392V11.4962Z" fill="#C68313"/>
</svg>
