<svg width="91" height="91" viewBox="0 0 91 91" fill="none" xmlns="http://www.w3.org/2000/svg">
<path d="M19.5004 53.0835C16.6554 48.4244 15.1554 43.0688 15.1666 37.6097C15.1666 21.025 28.7483 7.5835 45.4999 7.5835C62.2515 7.5835 75.8332 21.025 75.8332 37.6097C75.8444 43.0688 74.3444 48.4244 71.4994 53.0835M56.8749 72.0418L56.382 74.495C55.8511 77.1757 55.5819 78.5142 54.9791 79.5759C54.0501 81.2122 52.5459 82.4447 50.7589 83.0339C49.6025 83.4168 48.2299 83.4168 45.4999 83.4168C42.7699 83.4168 41.3973 83.4168 40.2409 83.0377C38.4532 82.4475 36.949 81.2136 36.0207 79.5759C35.4179 78.5142 35.1486 77.1757 34.6178 74.495L34.1249 72.0418M45.4999 60.6668V41.7085M27.9938 64.8301C27.6449 63.7836 27.4705 63.2565 27.4895 62.8319C27.5109 62.3928 27.6591 61.9693 27.9162 61.6127C28.1732 61.256 28.5281 60.9815 28.9379 60.8223C29.3322 60.6668 29.8858 60.6668 30.9854 60.6668H60.0144C61.1178 60.6668 61.6676 60.6668 62.0619 60.8185C62.4722 60.978 62.8275 61.2531 63.0846 61.6104C63.3417 61.9678 63.4896 62.3921 63.5103 62.8319C63.5293 63.2565 63.3549 63.7798 63.006 64.8301C62.3614 66.7676 62.0392 67.7383 61.5424 68.5232C60.5035 70.1635 58.875 71.3428 56.9924 71.8181C56.09 72.0418 55.0739 72.0418 53.0377 72.0418H37.9621C35.9259 72.0418 34.906 72.0418 34.0074 71.8143C32.1254 71.3399 30.497 70.162 29.4574 68.5232C28.9606 67.7383 28.6384 66.7676 27.9938 64.8301Z" stroke="#C68313" stroke-width="5.6875" stroke-linecap="round" stroke-linejoin="round"/>
</svg>
