<svg width="20" height="20" viewBox="0 0 20 20" fill="none" xmlns="http://www.w3.org/2000/svg">
<path d="M9.99814 5.99619C7.78134 5.99619 5.99228 7.78525 5.99228 10.002C5.99228 12.2188 7.78134 14.0079 9.99814 14.0079C12.2149 14.0079 14.004 12.2188 14.004 10.002C14.004 7.78525 12.2149 5.99619 9.99814 5.99619ZM9.99814 12.6056C8.56454 12.6056 7.39462 11.4356 7.39462 10.002C7.39462 8.56845 8.56454 7.39853 9.99814 7.39853C11.4317 7.39853 12.6017 8.56845 12.6017 10.002C12.6017 11.4356 11.4317 12.6056 9.99814 12.6056ZM14.1681 4.89853C13.6505 4.89853 13.2325 5.3165 13.2325 5.83408C13.2325 6.35166 13.6505 6.76962 14.1681 6.76962C14.6856 6.76962 15.1036 6.35361 15.1036 5.83408C15.1038 5.71118 15.0797 5.58945 15.0327 5.47588C14.9857 5.3623 14.9168 5.25911 14.8299 5.1722C14.743 5.0853 14.6398 5.01639 14.5263 4.96943C14.4127 4.92247 14.291 4.89838 14.1681 4.89853ZM17.8067 10.002C17.8067 8.92392 17.8165 7.85556 17.756 6.77939C17.6954 5.52939 17.4102 4.42001 16.4962 3.50595C15.5802 2.58994 14.4727 2.30673 13.2227 2.24619C12.1446 2.18564 11.0763 2.19541 10.0001 2.19541C8.92197 2.19541 7.85361 2.18564 6.77744 2.24619C5.52744 2.30673 4.41806 2.59189 3.504 3.50595C2.58798 4.42197 2.30478 5.52939 2.24423 6.77939C2.18369 7.85751 2.19345 8.92587 2.19345 10.002C2.19345 11.0782 2.18369 12.1485 2.24423 13.2247C2.30478 14.4747 2.58994 15.5841 3.504 16.4981C4.42001 17.4142 5.52744 17.6974 6.77744 17.7579C7.85556 17.8185 8.92392 17.8087 10.0001 17.8087C11.0782 17.8087 12.1466 17.8185 13.2227 17.7579C14.4727 17.6974 15.5821 17.4122 16.4962 16.4981C17.4122 15.5821 17.6954 14.4747 17.756 13.2247C17.8185 12.1485 17.8067 11.0802 17.8067 10.002ZM16.088 14.6075C15.9454 14.963 15.7735 15.2286 15.4981 15.502C15.2227 15.7774 14.9591 15.9493 14.6036 16.0919C13.5763 16.5001 11.1368 16.4083 9.99814 16.4083C8.85947 16.4083 6.41806 16.5001 5.39072 16.0938C5.03525 15.9513 4.76962 15.7794 4.49619 15.504C4.2208 15.2286 4.04892 14.9649 3.90634 14.6095C3.50009 13.5802 3.59189 11.1407 3.59189 10.002C3.59189 8.86337 3.50009 6.42197 3.90634 5.39462C4.04892 5.03916 4.2208 4.77353 4.49619 4.50009C4.77158 4.22666 5.03525 4.05283 5.39072 3.91025C6.41806 3.504 8.85947 3.5958 9.99814 3.5958C11.1368 3.5958 13.5782 3.504 14.6056 3.91025C14.961 4.05283 15.2267 4.2247 15.5001 4.50009C15.7755 4.77548 15.9474 5.03916 16.0899 5.39462C16.4962 6.42197 16.4044 8.86337 16.4044 10.002C16.4044 11.1407 16.4962 13.5802 16.088 14.6075Z" fill="white"/>
</svg>
