<svg width="18" height="18" viewBox="0 0 18 18" fill="none" xmlns="http://www.w3.org/2000/svg">
<g clip-path="url(#clip0_3341_63)">
<path d="M14.6074 14.6105H12.0689V10.6327C12.0689 9.6841 12.0496 8.46338 10.746 8.46338C9.42244 8.46338 9.2203 9.49552 9.2203 10.5627V14.6105H6.68173V6.43052H9.1203V7.54552H9.15316C9.49387 6.90267 10.3224 6.2241 11.5603 6.2241C14.1324 6.2241 14.6082 7.91695 14.6082 10.1205L14.6074 14.6105ZM3.81458 5.31124C3.62087 5.31152 3.42901 5.27355 3.25001 5.19951C3.07101 5.12547 2.90838 5.01681 2.77148 4.87976C2.63457 4.74272 2.52607 4.58 2.4522 4.40092C2.37833 4.22185 2.34054 4.02995 2.34101 3.83624C2.34115 3.54465 2.42776 3.25966 2.58987 3.01729C2.75199 2.77492 2.98233 2.58607 3.25177 2.47462C3.52122 2.36316 3.81766 2.33411 4.10362 2.39113C4.38957 2.44816 4.6522 2.5887 4.85828 2.79498C5.06436 3.00126 5.20465 3.26402 5.26139 3.55003C5.31814 3.83605 5.2888 4.13246 5.17709 4.4018C5.06537 4.67113 4.8763 4.90129 4.63377 5.06317C4.39125 5.22505 4.10617 5.31138 3.81458 5.31124ZM5.08744 14.6105H2.54173V6.43052H5.08744V14.6105ZM15.8774 0.00195312H1.26744C0.568156 0.00195312 0.00244141 0.55481 0.00244141 1.23695V15.9098C0.00244141 16.5927 0.568156 17.1448 1.26744 17.1448H15.8753C16.5739 17.1448 17.1453 16.5927 17.1453 15.9098V1.23695C17.1453 0.55481 16.5739 0.00195312 15.8753 0.00195312H15.8774Z" fill="white"/>
</g>
<defs>
<clipPath id="clip0_3341_63">
<rect width="17.1429" height="17.1429" fill="white"/>
</clipPath>
</defs>
</svg>
